<?xml version="1.0" encoding="UTF-8"?>
<svg id="Layer_1" data-name="Layer 1" xmlns="http://www.w3.org/2000/svg" viewBox="0 0 599.03 107">
  <defs>
    <style>
      .cls-1, .cls-2 {
        fill: #fff;
      }

      .cls-2 {
        stroke: #231f20;
        stroke-miterlimit: 10;
      }

      .cls-3 {
        fill: #0c72ba;
      }

      .cls-4 {
        fill: none;
      }

      .cls-5 {
        fill: #231f20;
      }

      .cls-6 {
        fill: #010101;
      }
    </style>
  </defs>
  <ellipse class="cls-1" cx="53.5" cy="54.15" rx="48.49" ry="48.48"/>
  <g>
    <path class="cls-1" d="m58.85,34.04c.12-.13.22-.25.32-.38,0,0,0,0,.01-.01.09-.13.17-.26.23-.4.01-.03.03-.05.04-.08.06-.13.11-.26.14-.4,0-.03.01-.05.02-.08.03-.14.05-.28.05-.42,0-.86-.56-1.67-1.54-2.39-4.53-3.31-9.07-6.61-13.6-9.92-4.48,3.37-8.96,6.73-13.44,10.1-.15.11-.28.22-.41.34-.04.03-.07.07-.11.1-.09.09-.18.18-.26.27-.03.03-.06.06-.09.1-.1.12-.19.24-.27.36,0,.02-.02.03-.03.05-.07.11-.12.22-.17.33,0,.02-.02.03-.03.05-.01.03-.02.05-.03.08-.02.06-.04.12-.06.19-.01.05-.02.1-.03.14-.01.06-.02.13-.03.19,0,.03-.01.06-.01.09,0,.04,0,.08,0,.12,0,.13.02.26.04.39,0,.02,0,.03,0,.05,0,.02.01.04.02.06,0,.04.02.07.03.11.02.05.03.1.05.15.01.04.03.07.04.11,0,.02.01.03.02.05,0,.01.02.03.03.04.07.13.14.27.24.39,0,0,0,0,0,0,0,0,0,0,0,0,.09.12.19.24.31.36.01.01.02.03.04.04,0,.01.02.02.03.03.12.12.24.23.38.35,0,0,.02.02.02.02.02.01.04.03.05.04.14.11.29.22.45.33.01,0,.02.01.03.02,0,0,0,0,.01,0,.18.12.37.24.58.35.02.01.04.02.06.03.01,0,.03.01.04.02.22.12.45.24.7.35.02,0,.04.02.06.03.03.01.07.03.1.04.09.04.18.08.27.11.07.03.14.06.22.09.09.04.19.07.29.11.05.02.1.04.15.06.02,0,.04.01.06.02.21.08.42.15.65.22.04.01.07.02.11.03.19.06.39.12.59.18.03,0,.07.02.1.03.03,0,.07.02.11.03.18.05.36.1.55.14.05.01.11.03.16.04.24.06.48.11.73.16.06.01.12.02.18.04.2.04.39.08.59.12.08.01.16.03.24.04.2.04.4.07.61.1.07.01.13.02.19.03.27.04.54.08.81.11.06,0,.12.01.18.02.22.03.44.05.67.07.09,0,.18.02.27.03.22.02.44.04.66.06.07,0,.15.01.22.02.29.02.58.04.88.05.01,0,.03,0,.04,0,.01,0,.03,0,.05,0,.62.03,1.25.04,1.9.04.02,0,.04,0,.07,0,.06,0,.12,0,.18,0,.44,0,.87-.01,1.29-.03.03,0,.07,0,.1,0,.02,0,.03,0,.05,0,.4-.02.79-.04,1.18-.07.04,0,.08,0,.11,0,.03,0,.06,0,.09,0,.36-.03.71-.06,1.06-.09.02,0,.05,0,.07,0,.04,0,.08-.01.12-.01.32-.04.65-.07.96-.12.02,0,.04,0,.07,0,0,0,.01,0,.02,0,.33-.05.65-.1.97-.15.04,0,.07-.01.11-.02.03,0,.06-.01.09-.02.32-.06.63-.11.94-.18.01,0,.03,0,.04,0,.03,0,.06-.01.09-.02.32-.07.64-.14.94-.22.01,0,.03,0,.04,0,0,0,0,0,.01,0,.35-.09.68-.18,1-.28.02,0,.05-.01.07-.02.01,0,.02,0,.03-.01.37-.11.73-.23,1.06-.35.01,0,.02,0,.03-.01,0,0,.01,0,.02,0,.2-.08.4-.15.59-.23.05-.02.1-.04.15-.06.14-.06.28-.12.42-.19.03-.01.07-.03.1-.04.02,0,.04-.02.06-.03.21-.1.42-.21.61-.31.03-.02.06-.04.1-.06.19-.11.37-.22.54-.33.01,0,.02-.01.03-.02.17-.12.33-.24.48-.36.03-.02.06-.05.09-.07.14-.12.27-.24.39-.36.02-.02.04-.04.06-.07Z"/>
    <path class="cls-2" d="m57.14,53.31h0s.02,0,.03-.02c.18-.1.35-.2.52-.3.04-.02.07-.05.11-.07.14-.09.28-.18.41-.28.02-.02.05-.03.07-.05.14-.11.27-.22.4-.33.03-.03.06-.05.09-.08.11-.1.21-.2.3-.31.01-.01.03-.03.04-.04.1-.11.18-.23.26-.35.02-.03.04-.06.05-.09.07-.11.13-.23.18-.34,0,0,0-.02.01-.03.05-.12.09-.25.12-.37,0-.03.01-.06.02-.09.02-.13.04-.25.04-.38h0c-.03-4.78-.09-11.16-.13-15.95,0-.01,0-.02,0-.03,0-.04,0-.08-.01-.12,0-.05,0-.1-.01-.15,0,0,0-.01,0-.02,0-.05-.02-.09-.03-.14,0-.04-.01-.07-.03-.11,0,0,0,0,0-.01-.02-.08-.05-.15-.08-.23,0,0,0-.01,0-.02h0c-.03-.08-.07-.16-.11-.23,0,0,0-.01-.01-.02-.01-.03-.03-.05-.05-.08-.03-.04-.05-.09-.08-.13,0-.01-.02-.03-.03-.04-.02-.03-.04-.06-.06-.08-.02-.03-.04-.06-.07-.09-.02-.02-.04-.05-.06-.07-.02-.03-.05-.06-.07-.09-.02-.02-.03-.04-.05-.06-.03-.04-.07-.07-.1-.1-.02-.02-.05-.05-.07-.07,0,0-.02-.02-.03-.03-.07-.07-.14-.13-.22-.19,0,0,0,0,0,0h0c-.08-.07-.16-.13-.25-.2,0,0-.02-.01-.03-.02-.03-.02-.06-.05-.1-.07-.05-.03-.09-.07-.14-.1-.02-.01-.05-.03-.07-.04-.04-.03-.08-.06-.13-.08-.04-.02-.07-.05-.11-.07-.03-.02-.07-.04-.1-.06-.05-.03-.09-.06-.14-.08-.03-.02-.05-.03-.08-.05-.04-.02-.09-.05-.14-.07-.05-.03-.11-.06-.17-.09-.02-.01-.04-.02-.07-.04-.05-.03-.11-.05-.16-.08-.06-.03-.13-.06-.19-.09-.02,0-.04-.02-.06-.03-.05-.02-.11-.05-.17-.07-.08-.03-.15-.07-.23-.1-.02,0-.04-.02-.06-.03-.05-.02-.1-.04-.15-.06-.1-.04-.2-.08-.31-.12-.03-.01-.06-.02-.08-.03-.04-.01-.08-.03-.12-.04-.13-.05-.25-.09-.38-.14-.04-.01-.08-.03-.12-.04-.03,0-.05-.02-.08-.02-.22-.07-.45-.15-.68-.21,0,0,0,0,0,0,0,0,0,0-.01,0-.32-.09-.64-.18-.98-.26-.02,0-.04-.01-.06-.02,0,0-.02,0-.03,0-.37-.09-.75-.17-1.14-.25-.03,0-.06-.01-.09-.02-.39-.08-.8-.14-1.21-.21-.03,0-.07-.01-.1-.02-.41-.06-.84-.12-1.27-.16-.04,0-.07,0-.11-.01-.43-.05-.87-.09-1.32-.12-.03,0-.05,0-.08,0-.01,0-.03,0-.04,0-.37-.03-.75-.05-1.13-.06-.04,0-.08,0-.11,0-.04,0-.08,0-.12,0-.26,0-.53-.02-.79-.02-.04,0-.07,0-.11,0,0,0-.02,0-.03,0-.27,0-.54,0-.81,0-.02,0-.05,0-.07,0-.11,0-.21,0-.32,0-.14,0-.29,0-.43,0-.01,0-.03,0-.04,0-.13,0-.27,0-.4.01-.1,0-.21,0-.31.01,0,0-.02,0-.03,0-.23.01-.46.02-.69.04,0,0,0,0,0,0-.02,0-.04,0-.06,0-.19.01-.39.03-.58.04-.02,0-.04,0-.06,0-.08,0-.15.01-.23.02-.11,0-.23.02-.34.03-.04,0-.08,0-.12.01-.08,0-.16.02-.24.02-.08,0-.16.02-.23.02-.07,0-.13.02-.2.02-.08,0-.16.02-.24.03-.05,0-.1.01-.15.02-.1.01-.2.03-.31.04-.06,0-.13.02-.19.03-.02,0-.04,0-.07,0-.19.03-.37.05-.56.08,0,0,0,0,0,0-.02,0-.03,0-.05,0-.17.03-.33.05-.5.08-.02,0-.05,0-.07.01-.07.01-.13.02-.2.04-.09.02-.18.03-.27.05-.04,0-.09.02-.13.03-.08.02-.16.03-.23.05-.06.01-.12.02-.19.04-.06.01-.12.03-.18.04-.08.02-.16.04-.24.05-.04,0-.09.02-.13.03-.07.02-.14.04-.21.05-.08.02-.17.04-.25.06-.03,0-.06.01-.09.02-.08.02-.15.04-.23.06-.09.02-.17.05-.26.07-.02,0-.05.01-.07.02-.07.02-.14.04-.21.06-.09.03-.19.06-.28.08-.02,0-.05.01-.07.02-.06.02-.11.04-.17.05-.12.04-.23.08-.35.11-.03,0-.06.02-.09.03-.04.01-.08.03-.12.05-.13.05-.26.09-.38.14-.04.01-.08.03-.12.04-.03.01-.05.02-.07.03-.2.08-.39.16-.58.24,0,0-.01,0-.02,0h0c-.26.12-.5.24-.73.36-.02,0-.04.02-.06.03-.01,0-.02.01-.03.02-.18.1-.35.2-.52.3-.04.02-.07.05-.11.07-.14.09-.28.18-.41.28-.02.02-.05.03-.07.05-.14.11-.27.22-.4.33-.03.03-.06.05-.08.08-.11.1-.21.2-.3.31-.01.01-.03.03-.04.04-.1.11-.18.23-.26.35-.02.03-.04.06-.05.09-.07.11-.13.23-.18.34,0,0,0,.02-.01.03-.05.12-.09.25-.12.37,0,.03-.01.06-.02.09-.02.13-.04.25-.04.38l.13,15.95s0,.02,0,.03c0,.04,0,.08.01.12,0,.05,0,.1.01.15,0,0,0,.01,0,.02,0,.05.02.09.03.14,0,.04.02.08.03.11,0,0,0,0,0,.01.02.08.05.15.08.22,0,0,0,.02,0,.02h0c.03.08.07.16.11.23,0,0,0,.01.01.02.01.03.03.05.05.08.03.04.05.09.08.13,0,.01.02.03.03.04.02.03.04.06.06.08.02.03.04.06.07.09.02.02.04.05.06.07.02.03.05.06.07.09.02.02.03.04.05.06.03.03.07.07.1.1.02.02.05.05.07.07,0,0,.02.02.03.03.07.07.14.13.22.19,0,0,0,0,0,0h0s0,0,0,0"/>
    <g>
      <path class="cls-2" d="m67.04,55.08s-.01-.08-.02-.12c-.02-.09-.03-.17-.06-.26-.01-.05-.03-.09-.04-.14-.03-.08-.05-.16-.09-.24-.02-.05-.04-.09-.06-.14-.01-.02-.02-.05-.03-.07-.03-.06-.06-.11-.09-.17-.02-.04-.04-.09-.07-.13-.06-.1-.12-.2-.19-.3-.02-.02-.03-.04-.04-.07-.09-.12-.18-.24-.28-.36-.03-.03-.06-.07-.09-.1-.06-.07-.12-.14-.19-.2-.02-.02-.03-.03-.05-.05-.04-.04-.09-.09-.14-.13-.08-.07-.16-.14-.24-.22-.05-.04-.11-.09-.16-.13-.08-.07-.17-.14-.26-.21-.06-.04-.11-.09-.17-.13-.09-.07-.19-.14-.29-.21-.06-.04-.12-.08-.18-.12-.02-.01-.04-.03-.06-.04-.07-.05-.15-.09-.22-.14-.08-.05-.17-.1-.26-.16-.1-.06-.2-.11-.31-.17-.09-.05-.18-.1-.27-.15-.11-.06-.22-.11-.33-.17-.1-.05-.19-.1-.29-.14-.12-.05-.24-.11-.35-.16-.1-.05-.2-.09-.3-.14-.02,0-.03-.01-.05-.02-.04-.02-.08-.03-.11-.04-.27-.11-.54-.22-.83-.33-.08-.03-.16-.06-.24-.09-.33-.12-.66-.24-1.01-.35-.05-.02-.11-.03-.16-.05-.31-.1-.63-.19-.95-.28-.09-.03-.18-.05-.27-.08-.37-.1-.75-.2-1.15-.29-.01,0-.03,0-.04-.01-.03,0-.06-.01-.09-.02-.53-.12-1.06-.24-1.62-.34,0,0-.01,0-.02,0-.55-.11-1.12-.2-1.71-.29-.05,0-.1-.02-.16-.02-.56-.08-1.13-.16-1.71-.22-.08,0-.16-.02-.24-.03-.57-.06-1.15-.12-1.74-.16-.05,0-.1-.01-.15-.01-.04,0-.07,0-.11,0-.72-.05-1.46-.09-2.21-.12-.06,0-.12,0-.18,0-.8-.03-1.62-.04-2.45-.03-.44,0-.87.01-1.31.02-.04,0-.08,0-.12,0-.05,0-.1,0-.15,0-.64.02-1.28.05-1.91.09-.05,0-.1,0-.15.01-.65.04-1.3.09-1.93.16,0,0,0,0,0,0h0c-.55.06-1.1.12-1.63.19-.09.01-.18.02-.26.03-.51.07-1.01.14-1.5.23-.04,0-.09.01-.13.02-.05,0-.1.02-.15.03-.51.09-1.01.18-1.5.28-.06.01-.12.03-.18.04-.5.11-.99.22-1.46.33-.01,0-.03,0-.04,0,0,0-.01,0-.02,0-.29.07-.58.15-.87.23,0,0-.01,0-.02,0-.29.08-.58.16-.86.25-.09.03-.18.06-.27.09-.19.06-.37.12-.56.18-.11.04-.21.07-.31.11-.16.06-.32.11-.47.17-.01,0-.03,0-.04.01-.12.04-.23.09-.34.13-.12.05-.24.09-.35.14-.12.05-.24.1-.36.15-.11.05-.23.1-.34.14-.12.05-.23.11-.34.16-.11.05-.21.1-.32.15-.11.05-.21.11-.32.17-.1.05-.2.1-.3.15-.1.06-.2.12-.3.17-.09.05-.19.1-.27.16-.1.06-.19.12-.28.18-.08.05-.17.11-.25.16-.09.06-.17.12-.26.18-.08.06-.16.11-.23.17-.08.06-.16.13-.23.19-.07.06-.14.11-.21.17-.07.06-.14.13-.21.19-.06.06-.13.12-.19.18-.07.07-.12.13-.18.2-.05.06-.11.12-.16.18-.06.07-.11.14-.16.21-.05.06-.09.12-.14.18-.05.07-.09.15-.14.22-.04.06-.08.12-.11.17-.04.08-.08.15-.11.23-.03.06-.06.11-.08.17-.03.08-.06.16-.08.24-.02.05-.04.11-.06.16-.03.09-.04.19-.06.28,0,.04-.02.08-.03.13-.02.14-.03.28-.03.42.01,2.63,3.48,4.94,8.85,6.39l4.72,1.27c-3.5-.94-5.76-2.45-5.76-4.16,0-.09,0-.18.02-.27,0-.03.01-.06.02-.1.01-.06.02-.11.04-.17.01-.04.03-.08.04-.11.02-.05.03-.1.05-.15.02-.04.04-.08.06-.11.02-.05.04-.1.07-.14.02-.04.05-.07.07-.11.03-.05.06-.1.09-.14.03-.04.06-.08.09-.11.04-.05.07-.09.11-.14.03-.04.07-.07.1-.11.04-.04.08-.09.12-.13.04-.04.08-.07.12-.11.05-.04.09-.09.14-.13.04-.04.09-.07.14-.11.05-.04.1-.08.15-.12.05-.04.1-.07.15-.11.06-.04.11-.08.17-.12.05-.04.11-.07.16-.11.06-.04.12-.08.18-.12.06-.03.12-.07.18-.1.07-.04.13-.08.2-.11.06-.03.13-.07.19-.1.07-.04.14-.07.21-.11.07-.03.14-.06.21-.1.07-.03.15-.07.22-.1.07-.03.14-.06.22-.09.08-.03.16-.07.24-.1.07-.03.15-.06.23-.09.08-.03.16-.06.24-.09.33-.12.67-.24,1.03-.35,0,0,.01,0,.02,0,.37-.11.75-.22,1.14-.32.01,0,.02,0,.03,0,.31-.08.63-.15.95-.22.04,0,.08-.02.12-.03.32-.07.65-.13.98-.18.06-.01.12-.02.18-.03.32-.05.65-.1.98-.15.06,0,.12-.01.17-.02.35-.05.7-.09,1.06-.12,0,0,0,0,0,0,.41-.04.83-.07,1.26-.1.03,0,.06,0,.1,0,.41-.03.82-.04,1.24-.06.06,0,.12,0,.17,0,.28,0,.57-.01.85-.02.54,0,1.07,0,1.59.02.04,0,.08,0,.12,0,.49.02.97.04,1.44.08.06,0,.11,0,.17.01.38.03.76.07,1.13.11.05,0,.1.01.15.02.38.04.75.09,1.12.15.03,0,.07.01.1.02.38.06.75.12,1.11.19,0,0,0,0,.01,0,.36.07.71.14,1.05.22.03,0,.06.01.08.02.25.06.5.12.75.19.06.02.12.03.18.05.21.06.42.12.62.18.04.01.07.02.11.03.23.07.45.15.66.23.05.02.1.04.16.06.18.07.36.14.54.21.03.01.06.02.09.04.27.11.52.23.76.36.02.01.05.02.07.03.23.12.45.25.66.38.02.01.05.03.07.04.17.11.33.23.48.34.03.02.06.04.08.07.14.12.28.24.4.36.02.02.04.04.05.06.12.12.23.25.32.37,0,0,0,.01.01.02.09.13.17.26.23.39.01.02.02.05.03.07.06.12.1.25.13.38,0,.02.01.05.02.07.03.13.05.27.05.4,0,.08,0,.16-.02.25,0,.05-.01.1-.02.15-.01.05-.02.11-.04.16-.01.05-.03.1-.05.14-.02.05-.04.11-.07.16-.02.05-.04.1-.07.14-.03.05-.06.1-.09.16-.03.05-.06.09-.09.14-.04.05-.07.1-.11.15-.04.05-.07.09-.11.14-.04.05-.09.1-.14.15-.04.04-.08.09-.13.13-.05.05-.11.1-.16.15-.05.04-.1.09-.15.13-.06.05-.12.1-.18.14-.05.04-.11.08-.17.12-.07.05-.14.09-.21.14-.06.04-.12.08-.18.12-.07.05-.15.09-.23.14-.07.04-.13.08-.2.12-.08.04-.17.09-.25.13-.07.04-.14.07-.21.11-.09.04-.18.09-.28.13-.07.03-.15.07-.22.1-.1.04-.2.09-.3.13-.08.03-.15.06-.23.09-.11.04-.22.08-.33.12-.08.03-.15.06-.24.09-.12.04-.25.09-.38.13-.07.02-.14.05-.22.07-.19.06-.38.12-.57.17-.02,0-.03.01-.05.02h0s0,0,0,0c1.57-.44,3.13-.89,4.7-1.33.33-.09.65-.19.96-.29.11-.03.21-.07.31-.1.2-.07.41-.13.6-.2.12-.04.23-.09.35-.13.17-.06.35-.13.52-.19.12-.05.24-.1.35-.15.16-.06.31-.13.47-.19.12-.05.23-.11.34-.16.14-.07.29-.13.42-.2.11-.06.22-.11.33-.17.13-.07.26-.13.39-.2.11-.06.2-.12.31-.18.12-.07.24-.14.35-.21.1-.06.19-.12.28-.18.11-.07.22-.14.32-.21.09-.06.17-.13.26-.19.1-.07.19-.15.28-.22.08-.07.15-.13.23-.2.08-.07.17-.15.25-.22.07-.07.14-.14.2-.21.07-.08.14-.15.21-.23.06-.07.11-.14.17-.21.06-.08.12-.16.18-.24.05-.07.09-.14.14-.21.05-.08.1-.16.14-.24.04-.07.07-.15.11-.22.04-.08.07-.16.1-.24.03-.07.05-.15.07-.22.02-.08.04-.17.06-.25.02-.08.03-.15.04-.23,0-.04.02-.08.02-.12,0-.09.01-.17.01-.26,0-.13-.01-.26-.03-.39Z"/>
      <path class="cls-5" d="m35.91,63.78l-4.72-1.27c-5.81-1.56-9.15-4.03-9.15-6.76,0-.16,0-.31.03-.46l.02-.11c.03-.15.05-.25.07-.35.01-.04.03-.09.04-.13l.44.02-.4-.11c.02-.07.05-.15.08-.22.02-.05.04-.09.06-.14l.44.05-.39-.15c.03-.07.06-.13.1-.19.02-.04.05-.08.08-.13l.4.13-.33-.25c.04-.06.07-.12.12-.18.03-.04.06-.08.1-.13l.39.17-.3-.28c.04-.06.08-.11.13-.17.04-.04.08-.09.12-.13l.11-.12s.09-.1.14-.15c.04-.04.09-.09.13-.13l.13-.12s.1-.09.15-.14c.05-.04.1-.09.16-.13l.06-.05c.12-.1.18-.15.24-.2l.31-.22c.06-.05.13-.09.2-.14l2.1-1.18,1.76-.74c.16-.06.29-.1.41-.15l.43-.15c.15-.05.32-.1.48-.15l.36-.11c.28-.09.57-.17.87-.25.31-.09.6-.16.9-.24.54-.13,1.03-.25,1.53-.35l.19-.04c.5-.1,1-.2,1.52-.29l.28-.05c.5-.08,1-.16,1.52-.23l.27-.03c.54-.07,1.09-.14,1.64-.19.65-.06,1.3-.12,1.96-.16h.15c.63-.05,1.27-.08,1.92-.1h.27c.44-.02.87-.03,1.32-.03h.38c.7,0,1.4.01,2.08.03h.18c.75.03,1.49.08,2.22.13l.08.4.03-.39h.09c.65.06,1.24.12,1.81.18l.24.03c.58.07,1.16.14,1.72.23l.1.02c.65.1,1.22.2,1.78.3.58.11,1.13.23,1.66.35l.09.02c.43.1.82.2,1.2.3l.22.06c.39.11.71.2,1.02.3l.16.05c.36.11.7.23,1.03.35l.24.09c.29.11.57.22.84.33l-.06.4.17-.36,2.45,1.27.2.13c.15.1.26.18.35.25l.18.14c.09.07.18.14.27.21l.17.14c.09.07.17.15.25.23l.14.14c.11.11.16.17.22.23l-.25.33.32-.26.06.07c.11.13.21.26.31.39l.05.08c.07.1.14.21.2.32l.06.1-.33.26.37-.18s.05.1.08.15l.09.22c.04.1.07.19.1.28l.05.15c.03.1.05.19.06.29l.02.13c.02.15.03.29.03.44,0,.09,0,.19-.01.29l-.02.11c-.01.11-.03.19-.04.28-.02.1-.04.19-.07.28-.02.08-.05.16-.08.25-.03.09-.07.18-.11.27-.04.08-.07.16-.12.24-.05.09-.1.18-.15.27-.05.08-.1.15-.15.23-.06.08-.12.17-.19.25-.06.08-.12.15-.18.22-.07.08-.15.16-.23.25-.09.09-.15.15-.21.22-.08.08-.17.16-.26.24-.09.08-.16.14-.24.21-.09.08-.19.15-.3.23-.12.09-.19.15-.27.2-.1.07-.2.14-.31.21-.15.1-.23.15-.31.2-.1.06-.21.13-.32.19l-.32-.27.23.33c-.09.05-.17.1-.26.15-.11.06-.23.12-.34.18l-.39.2c-.11.05-.23.11-.34.16l-.44.2c-.12.05-.25.11-.38.16l-.46.19c-.13.05-.26.1-.39.15l-.49.18c-.18.06-.36.12-.54.18l-.38.13c-.32.1-.64.2-.97.29l-4.69,1.33-.25-.75.03.07-.02-.07s0,0,0,0h0c.23-.07.42-.12.6-.18l2.34-.95.78-.46c.1-.07.17-.11.23-.16l.1-.08.34.25-.27-.3.27-.22c.07-.06.12-.11.17-.15l.12-.12s.09-.09.13-.14l.09-.11c.04-.05.08-.1.11-.14l.08-.12s.05-.09.08-.14c.02-.04.04-.08.06-.12.02-.04.04-.09.05-.13.02-.05.03-.09.04-.12.01-.04.02-.09.03-.13,0-.04.01-.08.02-.12,0-.07.02-.13.02-.2,0-.11-.02-.22-.04-.33-.04-.17-.08-.27-.12-.37-.09-.17-.15-.29-.23-.4-.09-.13-.19-.24-.3-.35-.16-.16-.28-.27-.41-.38l-.08-.06c-.14-.11-.29-.22-.45-.32-.26-.16-.47-.28-.69-.4-.3-.15-.54-.27-.8-.38l.08-.39-.17.36c-.17-.07-.34-.14-.52-.21l-.15-.06c-.21-.08-.42-.15-.64-.22l.03-.4-.13.37c-.2-.06-.4-.12-.61-.18l-.17-.05c-.24-.07-.48-.13-.73-.19-.42-.1-.76-.17-1.12-.24-.37-.07-.74-.13-1.11-.19l-.03-.4-.07.39c-.36-.05-.73-.1-1.1-.14l-.1-.41-.05.39c-.37-.04-.74-.08-1.12-.1h-.17c-.47-.05-.94-.07-1.42-.09l-.1-.39-.02.39c-.44-.01-.88-.02-1.33-.02h-.24c-.28,0-.56,0-.84.02h-.1c-.49.02-.9.04-1.3.06l-.13-.38.03.39c-.42.03-.83.06-1.24.1-.36.04-.71.08-1.05.12l-.17.02c-.33.04-.65.09-.97.15l-.18.03c-.33.06-.65.12-.96.18l-.12.03c-.32.07-.63.14-.93.21-.42.1-.79.21-1.15.32-.37.11-.71.23-1.03.35l-2.68,1.39-.84.83-.35.67c-.02.08-.03.11-.04.15l-.02.09c-.01.09-.02.17-.02.24,0,1.46,2.05,2.87,5.46,3.79l-.23.75Zm-.27-15.5l.07.38-.15.03c-.51.09-1,.18-1.49.28l-.18.04c-.49.1-.98.21-1.44.33-.35.09-.63.16-.91.24-.31.09-.59.17-.86.25l-.35.11c-.15.05-.31.1-.46.15l-3.42,1.46-1.54.99c-.05.04-.11.09-.16.13l-.64.56s-.08.08-.11.12l-.21.23s-.07.09-.1.13l-.17.22s-.06.09-.09.14l-.14.22s-.05.09-.07.14l-.1.22c-.02.05-.04.11-.06.16l-.07.2c-.02.08-.03.15-.05.23l-.02.1c-.02.16-.03.28-.03.4,0,2.32,3.16,4.55,8.45,5.99-.96-.75-1.48-1.6-1.48-2.49,0-.11,0-.21.02-.32l.02-.09c.02-.12.03-.17.05-.23l.03-.1.41.08-.39-.16s.03-.09.05-.13l.05-.09.4.12-.37-.19s.04-.09.07-.13l.06-.09c.06-.1.09-.15.12-.19l.07-.09.4.15-.35-.22s.06-.08.09-.11l.07-.08.4.17-.32-.25.2-.2.36.22-.3-.27.22-.19.36.23-.28-.29.24-.19.34.25-.26-.31.26-.18.34.26-.24-.32.27-.17.35.26-.22-.33.3-.16.32.28-.21-.34,1.23-.55.28.31-.16-.36.19-.07c.34-.12.69-.24,1.06-.36.4-.12.78-.23,1.19-.33.35-.09.67-.16,1-.23l.13-.03c.32-.07.65-.13.99-.19l.18-.03c.33-.05.66-.1.99-.15h.11c.41-.07.77-.11,1.14-.15.42-.04.85-.08,1.28-.1h.1c.41-.03.83-.05,1.26-.07h.18c.28-.01.57-.02.86-.02h.25c.46,0,.91,0,1.36.02h.12c.49.02.98.05,1.45.08h.17c.39.04.77.08,1.15.12h0s.15.02.15.02c.38.04.76.09,1.13.15l.1.02c.38.06.76.12,1.13.19.38.07.74.15,1.09.23l.08.02c.26.06.51.13.76.19l.18.05c.21.06.42.12.63.19l.11.03c.23.07.46.15.68.23l.12.05c.22.08.41.16.59.23l.1.04c.28.12.54.24.79.37l.07.04c.24.13.47.26.69.4l.07.05c.18.12.35.24.51.36l.09.07c.15.12.3.25.43.38l.06.07c.13.13.24.27.35.41.12.17.21.32.28.47l.04.08c.07.15.12.29.16.44l.02.08c.03.16.06.32.06.48,0,.1,0,.19-.02.29,0,.06-.02.12-.03.18-.01.06-.03.13-.05.19-.02.06-.03.12-.06.17-.02.05-.05.12-.07.18-.02.05-.05.11-.08.16-.03.06-.07.12-.1.18-.03.06-.07.11-.1.16-.04.06-.08.11-.13.17l-.12.15c-.05.06-.1.11-.15.17-.04.05-.09.1-.14.14-.06.05-.12.11-.17.16l-.22.19c.29-.08.58-.17.85-.26l.31-.1c.25-.08.42-.14.6-.2l.47-.18c.13-.05.26-.09.38-.14l.45-.18c.12-.05.24-.1.36-.15l.43-.2c.11-.05.22-.1.32-.15l.32-.16c.16-.09.27-.14.38-.2l.34-.2c.1-.06.2-.12.29-.17.08-.05.15-.1.22-.15l.07-.05c.1-.06.19-.13.28-.19l.19-.14c.15-.11.24-.18.32-.25.07-.06.14-.12.2-.18.1-.08.18-.16.25-.23.06-.05.11-.11.16-.17.09-.1.16-.17.22-.24.06-.06.11-.13.16-.2.06-.07.11-.14.16-.22.05-.07.09-.13.13-.2.05-.08.09-.15.13-.22.03-.06.06-.13.09-.2.03-.07.06-.15.09-.22.02-.07.04-.13.06-.19.02-.08.04-.15.06-.23.01-.06.02-.13.03-.2v-.08c.02-.1.03-.17.03-.25,0-.12,0-.23-.02-.34l.4-.17-.42.06c-.01-.08-.03-.15-.05-.23l-.03-.09c-.03-.1-.06-.18-.09-.25l-.22-.46c-.05-.09-.11-.18-.17-.27-.12-.17-.21-.28-.3-.39l.24-.34-.32.25c-.08-.09-.12-.14-.17-.19l-.13-.12c-.12-.12-.2-.18-.27-.25l-.15-.13c-.08-.07-.16-.13-.25-.2l-.17-.12c-.09-.07-.19-.13-.28-.2l-1.86-1.05-.64-.29.07-.4-.16.36c-.33-.14-.6-.24-.87-.35l-.23-.09c-.32-.12-.65-.23-1-.34l-.16-.05c-.31-.1-.62-.19-.94-.28l-.27-.07c-.37-.1-.75-.2-1.13-.29l-.13-.03c-.52-.12-1.05-.23-1.6-.34-.57-.11-1.13-.2-1.71-.29l-.15-.02c-.56-.08-1.12-.16-1.7-.22l-.23-.03c-.57-.06-1.14-.12-1.72-.16h-.08s-.03-.4-.03-.4l-.08.39c-.79-.06-1.52-.1-2.26-.12h-.18c-.67-.03-1.36-.04-2.05-.04h-.38c-.44,0-.87.01-1.3.02l-.13-.39v.39s-.14,0-.14,0c-.64.02-1.27.05-1.89.09h-.14c-.65.05-1.29.1-1.92.17-.56.06-1.09.12-1.63.19l-.26.03c-.5.07-1,.14-1.49.22l-.2-.37Z"/>
    </g>
    <path class="cls-2" d="m22.55,54.99s.02-.08.03-.12c.03-.11.07-.21.11-.32,0-.02.01-.03.02-.05.05-.12.11-.24.18-.36.02-.03.04-.07.06-.1.05-.09.11-.17.16-.26.03-.04.05-.08.08-.11.07-.09.14-.18.21-.28.02-.02.04-.05.06-.08.1-.11.2-.23.31-.34.03-.03.06-.06.09-.08.09-.09.18-.17.27-.25.04-.04.08-.07.12-.11.1-.08.2-.16.3-.24.04-.03.07-.06.11-.08.14-.11.29-.21.44-.32.03-.02.06-.04.1-.06.13-.08.26-.17.39-.25.05-.03.11-.06.16-.1.12-.07.25-.15.38-.22.05-.03.1-.06.16-.09.13-.07.26-.14.39-.2.07-.04.14-.07.21-.11.18-.09.36-.17.54-.25.03-.01.06-.03.09-.04.01,0,.02,0,.03-.01.28-.12.56-.24.86-.36.09-.04.19-.07.28-.11.18-.07.37-.14.56-.21.1-.04.21-.07.32-.11.17-.06.34-.11.51-.17.11-.04.23-.07.35-.11.14-.04.28-.08.42-.13.14-.04.28-.08.42-.12.13-.04.26-.07.39-.1.16-.04.31-.08.47-.12.12-.03.24-.06.37-.09.17-.04.34-.08.51-.12.11-.03.23-.05.35-.08.18-.04.36-.08.54-.12.12-.02.23-.05.35-.07.2-.04.39-.08.59-.11.1-.02.2-.04.3-.06.28-.05.55-.1.84-.14.03,0,.05,0,.08-.01.31-.05.62-.09.93-.14.1-.01.2-.03.29-.04.22-.03.44-.06.66-.09.12-.01.24-.03.35-.04.21-.02.43-.05.64-.07.12-.01.24-.02.36-.04.23-.02.45-.04.68-.06.11,0,.22-.02.33-.03.31-.02.62-.05.93-.07.04,0,.07,0,.11,0,.35-.02.71-.04,1.07-.06.15,0,.3-.01.45-.02.22,0,.44-.02.66-.02.21,0,.43,0,.64-.01.19,0,.38,0,.57,0,.4,0,.8,0,1.2,0,.07,0,.14,0,.21,0,.39,0,.79.02,1.17.03.12,0,.24,0,.35.01.57.02,1.13.05,1.68.09.17.01.34.03.52.04.18.01.36.03.53.04.18.02.36.03.53.05.17.02.35.03.52.05.18.02.35.04.53.06.17.02.34.04.51.06.17.02.34.05.51.07.17.02.33.05.5.07.17.03.34.05.51.08.16.03.32.05.48.08.17.03.33.06.49.09.16.03.32.06.47.09.16.03.31.06.47.09.15.03.31.06.46.09.15.03.31.07.46.1.15.03.3.07.44.1.05.01.11.03.16.04.5.12.99.25,1.45.39,0,0,.02,0,.03,0,.35.1.68.21,1.01.32.1.03.2.07.3.1.19.07.38.13.57.2.1.04.21.08.31.11.15.06.31.12.45.18.1.04.21.08.31.13.12.05.23.1.34.15.11.05.22.1.33.15.1.05.19.09.28.14.11.06.23.11.33.17.08.04.16.09.24.13.11.06.22.12.33.18.07.04.14.08.21.12.11.06.21.13.31.19.06.04.13.08.19.12.11.07.21.14.31.22.05.03.1.07.14.1.14.11.28.22.41.33,0,0,0,0,.01,0,.13.11.24.22.36.33.04.04.07.07.11.11.08.08.15.16.22.24.04.04.07.08.11.13.06.08.13.16.18.23.03.04.06.08.09.13.06.08.11.17.16.25.02.04.05.07.07.11.07.12.13.25.19.37,0,0,0,.02.01.03.05.12.09.24.13.36.02.05.03.11.04.16.02.08.04.16.05.24.01.07.01.15.02.22,0,.07.02.15.02.22l-.03-3.99s0-.03,0-.05c0-.06-.01-.11-.02-.17,0-.07,0-.15-.02-.22,0,0,0-.02,0-.03-.01-.07-.03-.14-.05-.21-.01-.06-.02-.11-.04-.17,0,0,0-.01,0-.02-.03-.11-.08-.23-.12-.34,0,0,0-.02-.01-.03,0,0,0,0,0,0-.05-.12-.11-.23-.17-.34,0,0-.01-.02-.02-.03-.02-.04-.05-.07-.07-.11-.04-.06-.08-.13-.12-.19-.01-.02-.03-.04-.04-.06-.03-.04-.06-.08-.09-.13-.03-.04-.06-.09-.1-.13-.03-.03-.06-.07-.09-.1-.04-.04-.07-.08-.11-.13-.02-.03-.05-.06-.07-.08-.05-.05-.1-.1-.15-.16-.04-.04-.07-.07-.11-.11-.01-.01-.03-.03-.04-.04-.1-.1-.21-.19-.32-.29,0,0,0,0-.01,0h0c-.12-.1-.24-.2-.37-.3-.01-.01-.03-.02-.05-.03-.05-.03-.1-.07-.14-.1-.07-.05-.14-.1-.21-.15-.03-.02-.07-.04-.1-.06-.06-.04-.13-.08-.19-.12-.05-.03-.1-.07-.16-.1-.05-.03-.1-.06-.15-.09-.07-.04-.14-.08-.21-.12-.04-.02-.08-.05-.12-.07-.07-.04-.14-.07-.2-.11-.08-.04-.16-.09-.24-.13-.03-.02-.06-.04-.1-.05-.08-.04-.16-.08-.24-.11-.09-.05-.19-.09-.28-.14-.03-.01-.06-.03-.09-.04-.08-.04-.16-.07-.25-.11-.11-.05-.22-.1-.34-.15-.03-.01-.06-.03-.09-.04-.07-.03-.15-.06-.22-.09-.15-.06-.3-.12-.45-.18-.04-.02-.08-.03-.13-.05-.06-.02-.12-.04-.18-.06-.19-.07-.37-.14-.57-.2-.06-.02-.12-.04-.18-.06-.04-.01-.08-.02-.12-.04-.33-.11-.66-.22-1.01-.32,0,0,0,0,0,0,0,0-.01,0-.02,0-.47-.14-.96-.26-1.45-.39-.03,0-.06-.02-.1-.03-.02,0-.04,0-.07-.02-.15-.04-.3-.07-.44-.1-.15-.03-.3-.07-.46-.1-.15-.03-.31-.06-.46-.09-.16-.03-.31-.06-.47-.09-.16-.03-.31-.06-.47-.09-.16-.03-.32-.06-.49-.09-.16-.03-.32-.05-.48-.08-.17-.03-.33-.05-.5-.08-.17-.02-.33-.05-.5-.07-.17-.02-.34-.05-.51-.07-.17-.02-.34-.04-.51-.06-.17-.02-.35-.04-.52-.06-.17-.02-.35-.03-.52-.05-.18-.02-.35-.04-.53-.05-.18-.02-.35-.03-.53-.04-.15-.01-.3-.03-.45-.04-.02,0-.04,0-.06,0-.55-.04-1.11-.07-1.68-.09-.06,0-.11,0-.17,0-.06,0-.12,0-.18,0-.39-.01-.78-.02-1.17-.03-.06,0-.11,0-.17,0-.01,0-.03,0-.04,0-.4,0-.8,0-1.2,0-.03,0-.07,0-.1,0-.16,0-.31,0-.47,0-.21,0-.43,0-.64.01-.02,0-.04,0-.06,0-.2,0-.4.01-.6.02-.15,0-.3,0-.45.02-.01,0-.03,0-.04,0-.34.02-.68.03-1.02.05,0,0,0,0,0,0-.04,0-.07,0-.1,0-.28.02-.56.04-.84.06-.03,0-.06,0-.09,0-.11,0-.22.02-.33.03-.17.01-.34.03-.51.04-.06,0-.12.01-.18.02-.12.01-.24.02-.35.04-.12.01-.23.02-.35.04-.1.01-.2.02-.29.03-.12.01-.24.03-.35.04-.07,0-.14.02-.21.03-.15.02-.3.04-.45.06-.1.01-.2.03-.29.04-.03,0-.07,0-.1.01-.28.04-.55.08-.82.12,0,0,0,0,0,0-.02,0-.04,0-.06,0-.25.04-.5.08-.75.13-.03,0-.07.01-.1.02-.1.02-.19.04-.29.05-.14.03-.27.05-.41.08-.06.01-.13.03-.19.04-.12.02-.23.05-.35.07-.09.02-.18.04-.27.06-.09.02-.18.04-.27.06-.12.03-.23.05-.35.08-.06.01-.13.03-.19.04-.11.03-.21.05-.32.08-.12.03-.25.06-.37.09-.05.01-.09.02-.14.03-.11.03-.22.06-.34.09-.13.03-.26.07-.38.1-.04.01-.07.02-.11.03-.11.03-.21.06-.31.09-.14.04-.28.08-.42.13-.03.01-.07.02-.1.03-.08.03-.16.05-.25.08-.17.06-.34.11-.51.17-.04.01-.09.03-.13.04-.06.02-.12.05-.19.07-.19.07-.38.14-.56.21-.06.02-.12.04-.17.06-.04.02-.07.03-.11.05-.29.12-.58.23-.86.36,0,0-.02,0-.03.01,0,0,0,0,0,0-.03.01-.06.03-.09.04-.19.08-.37.17-.55.26-.07.04-.14.07-.21.11-.11.06-.22.11-.33.17-.02.01-.05.03-.07.04-.05.03-.1.06-.15.08-.13.07-.26.15-.38.22-.05.03-.11.06-.16.1-.13.08-.27.17-.39.25-.03.02-.06.04-.09.06-.15.1-.3.21-.44.32-.04.03-.07.06-.11.08-.1.08-.21.16-.3.25-.04.04-.08.07-.12.11-.1.08-.19.17-.27.26-.03.03-.06.06-.09.08-.11.11-.22.23-.31.34-.02.02-.04.05-.06.07-.08.09-.15.18-.22.28-.03.04-.05.07-.08.11-.06.09-.11.17-.16.26-.02.03-.04.07-.06.1-.07.12-.12.24-.18.36,0,.02-.01.03-.02.05-.04.1-.08.21-.11.32-.01.04-.02.08-.03.12-.02.09-.04.18-.06.27,0,.04-.01.08-.02.11-.02.12-.03.25-.02.38l.03,3.99c0-.13,0-.25.02-.38,0-.04.01-.07.02-.11.01-.09.03-.18.06-.27Z"/>
    <path d="m67.02,54.96s.01.06.02.09c0,0,0-.02,0-.03,0-.02,0-.04-.01-.06Z"/>
    <path d="m62.54,62.99c.14-.06.29-.12.43-.18.1-.04.2-.09.29-.13l.09-.04.08-.04c.14-.06.27-.13.4-.19.1-.05.2-.1.29-.15l.08-.04.06-.03c.13-.07.26-.13.38-.2.1-.05.19-.11.29-.17l.07-.04.04-.03c.13-.07.25-.15.37-.22.1-.06.19-.12.28-.18l.06-.04c.15-.1.27-.18.39-.26.1-.07.19-.14.28-.21l.04-.03c.12-.09.24-.19.36-.28.09-.08.18-.16.27-.23.14-.12.25-.22.35-.32.09-.09.18-.18.27-.27.1-.11.2-.22.3-.32.08-.1.16-.2.24-.3.09-.11.18-.23.26-.34.07-.11.14-.22.21-.32.08-.12.15-.25.21-.37.06-.11.12-.23.17-.35.06-.13.11-.26.16-.4.04-.12.08-.25.12-.37.04-.14.07-.28.1-.42.02-.11.04-.22.06-.33.02-.09.03-.18.04-.26.01-.15.02-.3.02-.45,0,0,0,0,0,0,0,0,0,0,0-.01h0l-.03-3.98v-.07c0-.11-.01-.21-.02-.31,0-.09-.01-.17-.02-.25v-.04s-.02-.12-.02-.12c-.02-.11-.04-.22-.07-.33-.02-.07-.03-.13-.04-.19v-.04s-.04-.11-.04-.11c-.05-.16-.1-.32-.17-.48v-.03s-.02-.02-.02-.02l-.02-.06-.04-.08c-.07-.17-.16-.33-.25-.5l-.04-.07-.03-.04s-.04-.07-.07-.11l-.02-.04c-.05-.09-.1-.17-.16-.26-.03-.04-.06-.08-.09-.12-.03-.04-.06-.09-.1-.13l-.03-.03c-.04-.06-.09-.12-.13-.18-.04-.05-.08-.1-.13-.15-.05-.06-.1-.12-.15-.18-.02-.03-.06-.07-.1-.12-.05-.06-.11-.12-.17-.18l-.03-.03s-.08-.08-.12-.12c-.03-.03-.06-.06-.08-.08-.11-.11-.24-.22-.36-.33h0s-.06-.06-.06-.06c-.15-.13-.31-.25-.47-.38l-.03-.03-.04-.03s-.08-.06-.12-.09l-.04-.03-.05-.04c-.07-.05-.14-.1-.21-.15-.04-.03-.08-.05-.12-.08-.07-.05-.15-.1-.23-.15-.09-.06-.14-.09-.19-.13-.05-.03-.1-.06-.15-.09-.11-.07-.2-.12-.28-.17-.06-.03-.1-.06-.15-.09-.06-.03-.12-.07-.18-.1l-.05-.03c-.11-.06-.2-.11-.29-.15l-.12-.06c-.07-.03-.13-.07-.2-.1l-.07-.03-.05-.02c-.09-.05-.18-.09-.28-.13l-.1-.05c-.07-.03-.14-.06-.21-.09l-.07-.03-.05-.02c-.11-.05-.22-.1-.34-.15l-.1-.04c-.06-.03-.12-.05-.19-.08l-.06-.02c-.09-.04-.19-.07-.28-.11-.01-1.58-.03-3.18-.04-4.74l-.04-4.98h0s0-.06,0-.06c0-.09,0-.18-.02-.26,0-.06,0-.11-.01-.16v-.05s-.02-.12-.02-.12c-.02-.1-.04-.19-.06-.29,0,0,0-.02,0-.03.01-.05.02-.09.03-.14.06-.3.09-.59.09-.87,0-1.1-.44-2.72-2.51-4.23l-13.6-9.92-1.59-1.16-1.57,1.18-6.33,4.76-7.11,5.34c-.19.14-.38.3-.58.48-.05.04-.09.09-.14.13-.16.15-.29.29-.41.43-.06.06-.1.11-.14.16-.17.21-.32.41-.45.61l-.05.08-.03.06c-.09.15-.17.3-.24.46-.03.06-.06.12-.08.18-.03.07-.06.15-.08.22-.04.1-.07.2-.1.31-.03.1-.05.19-.07.29-.02.11-.04.22-.05.33-.01.08-.02.17-.03.25,0,.09,0,.17,0,.26,0,.23.02.46.07.71,0,.07.02.14.04.21l.02.07s0,.01,0,.02c-.01.06-.03.12-.04.18-.05.28-.08.54-.08.79l.08,9.73c-.21.08-.42.17-.62.26h0s-.06.03-.06.03h-.03s-.03.03-.03.03l-.04.02c-.21.09-.41.19-.62.29-.06.03-.12.06-.18.09l-.06.03-.08.04c-.1.05-.2.1-.29.15l-.09.05-.13.07-.04.02c-.15.08-.3.17-.45.26l-.19.12c-.16.1-.32.2-.47.3l-.11.07c-.19.13-.37.26-.55.39l-.11.09c-.16.12-.29.23-.41.33-.05.05-.11.09-.16.14-.13.11-.25.22-.36.34-.05.04-.08.08-.12.11-.15.16-.3.31-.43.47-.03.04-.06.08-.09.11-.1.12-.2.26-.3.39-.04.06-.08.11-.12.17-.09.13-.17.26-.25.39-.04.06-.06.11-.09.16-.11.2-.2.38-.28.57l-.03.06-.02.06c-.06.16-.12.32-.16.48-.02.06-.03.12-.05.18-.04.17-.07.32-.1.48-.01.08-.02.13-.03.19-.03.23-.04.44-.04.65l.03,4h0c.01,1.86,1.07,5.06,7.27,7.5l-3.36,29.23c.77.59,1.54,1.17,2.34,1.71v-.11c.69-5.87,1.36-11.75,2.04-17.62-.19,0-.37-.02-.57-.02l1.66-14.94c-.27-.09-.56-.18-.82-.28-.35-.13-.69-.28-1.02-.42-.2-.09-.41-.18-.6-.27-.76-.36-1.43-.75-2.01-1.16-.58-.41-1.06-.84-1.44-1.28-.25-.3-.46-.6-.62-.91l-.36-1.44h.01v-.38s.01,0,.01,0c0-.01,0-.03,0-.04l-.03-.47-.02-3.1.16-.98s0,0,0,0c.02-.07.04-.14.07-.21h0c.07-.17.15-.34.25-.51.03-.04.06-.09.08-.13.13-.2.27-.4.43-.59h0c.06-.06.12-.13.18-.19.09-.1.19-.2.29-.3.03-.03.06-.05.09-.08.02-.02.04-.03.06-.05.02-.02.04-.04.06-.06.04-.04.08-.07.12-.1.07-.06.14-.11.2-.17.17-.14.35-.27.54-.4.04-.03.07-.06.11-.08,0,0,0,0,0,0,.1-.07.2-.13.3-.2.06-.04.12-.08.18-.11.05-.03.11-.06.16-.1.08-.05.17-.1.26-.15.09-.05.18-.1.28-.16h0s0,0,0,0c.13-.07.26-.14.39-.2h0c.07-.04.14-.07.21-.11.08-.04.17-.08.26-.12.1-.05.19-.09.29-.14.03-.01.06-.03.09-.04h0s.02,0,.03-.01h0c.17-.07.34-.14.51-.21.11-.05.22-.1.34-.14.09-.04.19-.07.29-.11.07-.03.14-.05.2-.07.12-.04.24-.09.36-.13.1-.04.21-.07.31-.11h0s0,0,0,0c.03,0,.06-.02.09-.03h0s-.01-1.27-.01-1.27v-1.21s-.06-6.56-.06-6.56l-.02-2.27c0-.13.02-.25.04-.38,0-.03.01-.06.02-.09.03-.12.07-.25.12-.37,0,0,0-.02.01-.03.02-.04.05-.09.07-.13,0,0,0-.01,0-.02,0-.01-.02-.03-.03-.04,0-.02-.01-.03-.02-.05-.02-.04-.03-.07-.04-.11-.02-.05-.04-.1-.05-.15-.01-.04-.02-.07-.03-.11,0-.02-.01-.04-.02-.06,0-.02,0-.03,0-.05-.03-.13-.04-.26-.04-.39,0-.04,0-.08,0-.12,0-.03,0-.06.01-.09,0-.06.02-.13.03-.19,0-.05.02-.1.03-.14.02-.06.04-.13.06-.19,0-.03.01-.05.03-.08,0-.02.02-.03.03-.05.05-.11.1-.22.17-.33,0-.02.02-.03.03-.05.08-.12.17-.24.27-.36.03-.03.06-.07.09-.1.08-.09.16-.18.26-.27.04-.03.07-.07.11-.1.13-.11.26-.23.41-.34.83-.63,1.66-1.25,2.5-1.88,1.41-1.06,2.82-2.12,4.22-3.17,2.24-1.68,4.48-3.37,6.72-5.05,3.7,2.7,7.4,5.4,11.1,8.09.67.49,1.35.98,2.02,1.48.02.01.03.02.05.03.13.09.26.19.38.28,0,0,.02.01.03.02,0,0,.01,0,.02.01.37.27.68.55.92.85.24.29.42.6.52.91.07.21.1.42.1.64,0,.14-.02.28-.05.42,0,.03,0,.05-.02.08l-.02.9s0,0,0,.01c.01.04.02.07.03.11.01.05.02.09.03.14,0,0,0,.01,0,.02,0,.05,0,.1.01.15,0,.04,0,.08.01.12,0,.01,0,.02,0,.03,0,.72.01,1.49.02,2.28.02,2.08.04,4.32.06,6.55,0,.41,0,.82.01,1.23,0,.42,0,.83,0,1.25h0s.1.04.15.05c0,0,0,0,0,0,.1.03.19.07.29.1,0,0,0,0,0,0,.12.04.24.08.36.13.07.02.14.05.21.07.1.04.21.08.31.11,0,0,0,0,0,0,.15.06.3.12.45.18h0c.1.04.2.08.3.13.12.05.23.1.34.15h0s.07.03.11.05c.07.03.15.07.22.1.07.03.14.07.2.1.03.01.05.03.08.04,0,0,0,0,0,0,.11.05.22.11.33.16.03.02.07.04.1.05.05.03.1.05.15.08h0c.11.06.22.12.32.18.07.04.14.08.21.12.11.06.21.13.31.19.06.04.13.08.19.13.11.07.21.14.31.21,0,0,0,0,0,0,.05.03.1.07.14.1h0c.14.11.28.22.41.33h0s0,0,.01,0c0,0,0,0,0,0,.13.11.24.22.36.32.01.01.03.03.04.04.02.02.04.05.07.07h0c.08.08.15.16.22.24,0,0,0,0,0,0,.04.04.07.08.11.12,0,0,0,0,0,0,.06.08.12.15.18.23,0,0,0,0,0,0,.01.01.02.03.03.04,0,.01.02.03.03.04.01.01.02.03.03.04,0,0,0,0,0,0,.06.08.11.17.16.25,0,.01.02.03.03.04.01.02.03.05.04.07h0c.07.12.13.25.19.37,0,0,0,0,0,0,0,0,0,.02,0,.03,0,0,0,0,0,0,.03.06.05.13.07.19.02.05.04.1.06.16h0c.02.05.02.11.04.16h0c.02.09.04.16.05.24.01.07.01.15.02.22h0c0,.07.02.15.02.22l.02,3.09v.89c0-.06,0-.12,0-.19,0,0,0,0,0-.01,0,0,0-.01,0-.02,0-.05,0-.11-.01-.17,0-.01,0-.02,0-.03,0,0,0,.01,0,.02,0,.06.01.12.02.18,0,0,0,0,0,.01,0,.07.02.14.02.21,0,0,0,0,0,0,0,.09,0,.17-.01.26,0,.04-.01.08-.02.12,0,.08-.02.15-.04.23-.02.08-.04.17-.06.25-.02.07-.04.15-.07.22-.03.08-.06.16-.1.24-.03.07-.07.15-.11.22-.04.08-.09.16-.14.24-.04.07-.09.14-.14.21-.05.08-.11.16-.18.24-.05.07-.11.14-.17.21-.07.08-.14.15-.21.23-.07.07-.13.14-.2.21-.08.08-.16.15-.25.22-.08.07-.15.13-.23.2-.09.07-.19.15-.28.22-.08.06-.17.13-.26.19-.1.07-.21.14-.32.21-.09.06-.18.12-.28.18-.11.07-.23.14-.35.21-.1.06-.2.12-.31.18-.12.07-.26.14-.39.2-.11.06-.22.11-.33.17-.14.07-.28.13-.42.2-.03.01-.06.03-.09.04-.08.04-.17.08-.25.12-.15.07-.31.13-.47.19-.12.05-.23.1-.35.15h0s-.52.19-.52.19c-.12.04-.23.09-.35.13-.12.04-.25.08-.38.13l4.97,36.54c-.12-.16-.24-.31-.35-.47.16,1.24.32,2.47.49,3.71.83-.2,1.65-.42,2.46-.66l-4.93-37.59.08-.03Z"/>
    <path d="m31.5,60.87l-1.58,15.66c.91.04,1.8.12,2.68.22l1.53-14.58-1.13,14.61c.9.11,1.78.25,2.65.41l1.14-14.02-.77,14.08c.89.18,1.77.38,2.63.62l.81-13.98-.44,14.09c.89.25,1.76.54,2.62.85l.51-14.53-.13,14.68c.89.34,1.76.71,2.62,1.11l.2-15.68.22,15.87c.9.43,1.78.9,2.65,1.4l-.18-17.46.65,17.73c.91.55,1.81,1.13,2.69,1.75l-.65-19.96,1.21,20.38c.94.68,1.85,1.41,2.76,2.18l-1.3-23.35,1.98,23.92c.97.86,1.92,1.78,2.86,2.73l-2.18-27.73,3.04,28.62c1.15,1.22,2.28,2.52,3.39,3.89l-3.49-33.82,4.35,34.88c.54.69,1.07,1.4,1.61,2.12-1.47-11.23-2.94-22.42-4.42-33.66h0c-.1-.79-.21-1.59-.31-2.38.04-.01.07-.02.11-.04l-.43-3.15s-.29-4.63-14.62-4.63c-13.72,0-15.12,4.74-15.12,4.74l-.34,3.07c.2.07.39.14.6.21-.09.79-.18,1.59-.27,2.38-.47,4.12-.95,8.25-1.42,12.37.42.01.84.02,1.26.04l2.02-15.65Z"/>
    <path d="m29.91,61.73c-.21-.07-.4-.14-.6-.21l-1.66,14.94c.19,0,.38.01.57.02.47-4.12.95-8.25,1.42-12.37.09-.79.18-1.59.27-2.38Z"/>
    <path d="m60.03,63.91h0c1.48,11.24,2.94,22.43,4.42,33.66.12.16.24.31.35.47l-4.97-36.54s-.07.02-.11.04c.1.79.21,1.59.31,2.38Z"/>
    <path class="cls-1" d="m35.64,77.2c.12.02.25.04.38.06l.77-14.08-1.14,14.02Z"/>
    <path class="cls-1" d="m38.65,77.88c.12.03.25.07.37.11l.44-14.09-.81,13.98Z"/>
    <path class="cls-1" d="m44.64,80.09c.14.07.28.13.42.2l-.22-15.87-.2,15.68Z"/>
    <path class="cls-1" d="m32.6,76.75c.13.01.27.02.4.04l1.13-14.61-1.53,14.58Z"/>
    <path class="cls-1" d="m41.64,78.83c.13.05.26.1.38.15l.13-14.68-.51,14.53Z"/>
    <path class="cls-1" d="m29.48,76.52c.15,0,.29,0,.44.01l1.58-15.66-2.02,15.65Z"/>
    <path class="cls-1" d="m47.71,81.69c.16.09.32.17.47.27l-.65-17.73.18,17.46Z"/>
    <path class="cls-1" d="m54.19,86.3c.23.19.46.37.68.57l-1.98-23.92,1.3,23.35Z"/>
    <path class="cls-1" d="m50.87,83.71c.19.13.37.28.56.42l-1.21-20.38.65,19.96Z"/>
    <path class="cls-1" d="m57.73,89.61c.29.29.58.59.86.89l-3.04-28.62,2.18,27.73Z"/>
    <path class="cls-1" d="m61.98,94.38c.29.35.58.7.86,1.06l-4.35-34.88,3.49,33.82Z"/>
    <path class="cls-4" d="m56.26,40.25l5.97.09c0-.06,0-.13,0-.19l-5.97.1Z"/>
    <path class="cls-3" d="m62.2,37.35l34.1-6.1c-.25-.46-.51-.91-.77-1.36l-33.34,6.96v.5Z"/>
    <path class="cls-3" d="m69.35,50l.03.11v.04c.02.05.04.11.05.19.03.11.05.22.07.33l.02.12v.04c.01.08.02.16.02.25.01.1.02.21.02.31v.07s.03,3.98.03,3.98h0s0,0,0,.01c0,0,0,0,0,0,0,.15,0,.3-.02.45,0,.09-.02.17-.04.26-.01.11-.03.22-.06.33-.03.14-.06.28-.1.42-.04.12-.07.25-.12.37-.05.13-.1.27-.16.4-.05.12-.11.23-.17.35-.07.12-.14.25-.21.37-.07.11-.13.22-.21.32-.08.12-.17.23-.26.34-.08.1-.16.2-.24.3-.09.11-.19.21-.3.32-.09.09-.17.18-.27.27-.1.1-.21.2-.35.32-.09.08-.18.16-.27.23-.11.09-.23.18-.36.28l-.04.03c-.09.07-.18.14-.28.21-.12.08-.24.16-.39.26l-.06.04c-.09.06-.19.12-.28.18-.12.07-.25.15-.37.22l-.04.03-.07.04c-.09.06-.19.11-.29.17-.12.07-.25.14-.38.2l-.06.03-.08.04c-.1.05-.19.1-.29.15-.13.06-.27.13-.4.19l-.08.04-.09.04c-.1.05-.19.09-.29.13-.14.06-.28.12-.43.18l-.08.03,4.93,37.59c17.62-5.25,31.03-20.24,34.01-38.72l-32.15-12.17c.03.09.07.18.09.26Z"/>
    <path class="cls-3" d="m62.19,35.84l31.52-8.89c-.29-.43-.6-.85-.9-1.27l-30.62,9.64v.52Z"/>
    <path class="cls-3" d="m6.76,41.12l20.32-.41v-.52s-20.01-.17-20.01-.17c-.11.36-.21.73-.31,1.09Z"/>
    <path class="cls-3" d="m5.88,44.84l21.21-2.47v-.5s-20.98,1.84-20.98,1.84c-.08.38-.16.75-.23,1.13Z"/>
    <path class="cls-3" d="m62.22,38.97l36.29-2.99c-.2-.49-.4-.97-.61-1.45l-35.68,3.96v.48Z"/>
    <path class="cls-3" d="m62.23,40.35l37.97.58c-.13-.47-.26-.94-.41-1.4l-37.56.63c0,.06,0,.13,0,.19Z"/>
    <path class="cls-3" d="m7.89,37.56l19.18,1.47v-.51s-18.78-1.99-18.78-1.99c-.13.35-.28.69-.4,1.04Z"/>
    <path class="cls-3" d="m62.24,42.15l39.16,4.2c-.09-.54-.18-1.08-.29-1.62l-38.87-3.06c0,.16,0,.32,0,.48Z"/>
    <path class="cls-3" d="m27.1,33.18c-.04-.25-.07-.48-.07-.71,0-.09,0-.17,0-.26,0-.08.01-.17.03-.25.01-.11.03-.22.05-.33.02-.1.04-.2.07-.29.03-.1.06-.2.1-.31.02-.07.05-.15.08-.22.02-.06.05-.12.08-.18.07-.16.15-.31.24-.46l.03-.06.05-.08c.13-.2.27-.4.45-.61.04-.05.08-.09.14-.16.12-.14.25-.27.41-.43.05-.04.09-.09.14-.13.2-.18.39-.33.58-.48l7.11-5.34,6.33-4.76,1.57-1.18,1.59,1.16,13.6,9.92c2.07,1.51,2.51,3.13,2.51,4.23,0,.28-.03.57-.09.87,0,.04-.02.09-.03.14,0,.01,0,.02,0,.03.02.09.04.19.06.29l.02.12v.05s.01.1.02.16c0,.07.01.13.01.2l28.53-11.14c-8.9-10.62-22.26-17.37-37.2-17.37-17.04,0-32.02,8.79-40.67,22.08l14.27,5.55s0-.03,0-.04Z"/>
    <path class="cls-3" d="m62.26,43.8l39.71,8.14c-.03-.57-.07-1.14-.11-1.71l-39.6-6.94c0,.17,0,.34,0,.5Z"/>
    <path class="cls-3" d="m23.83,92.5l3.36-29.23c-6.2-2.44-7.26-5.65-7.27-7.5h0l-.03-4c0-.21.01-.42.04-.65,0-.06.02-.12.03-.19.02-.15.06-.31.1-.48.02-.06.03-.12.05-.18.01-.05.03-.09.05-.14l-15.12,5.85c.56,14.85,7.79,27.99,18.79,36.51Z"/>
    <path class="cls-3" d="m66.32,46.1s.07.05.11.08l.04.03.03.03c.16.12.32.25.47.38l.06.05h0c.13.12.25.23.36.34.03.03.06.05.08.08.02.02.05.05.07.07l34.32,10.57c.04-.6.08-1.19.1-1.8l-35.67-9.83Z"/>
    <path class="cls-3" d="m27.05,36.58l-17.26-3.53c-.16.34-.31.68-.47,1.02l17.73,3.08v-.57Z"/>
    <path class="cls-3" d="m27.03,34.62l-15.5-4.82c-.19.33-.39.66-.57,1l16.08,4.46v-.63Z"/>
    <path class="cls-3" d="m5.01,53.02l16.46-5.16c.13-.15.27-.3.42-.45.03-.03.07-.07.12-.11.12-.11.24-.23.36-.34.05-.05.1-.09.16-.14,0,0,.01,0,.02-.01l-17.5,4.93c-.02.42-.02.85-.03,1.28Z"/>
    <path class="cls-3" d="m5.27,48.87l21.55-4.57c.1-.04.19-.08.29-.12v-.48s-21.68,3.96-21.68,3.96c-.05.4-.11.8-.15,1.21Z"/>
  </g>
  <g>
    <path class="cls-6" d="m165.71,29.45c-3.29-1.59-7.56-2.19-12.34-2.19-14.43,0-22.69,10.65-22.69,27.47,0,15.92,8.86,29.36,26.57,29.36,4.28,0,8.46-1.1,10.95-3.38,2.49-1.99,4.88-5.38,7.46-9.75.5,0,2.19.9,2.39,1.59-.99,4.28-5.27,12.04-7.56,13.44-2.89,1-9.16,2.49-15.23,2.49-22.2,0-34.54-12.14-34.54-32.85,0-10.75,4.88-21.5,15.83-27.37,5.28-2.89,11.74-4.58,20.2-4.58s15.13,1.69,19.61,1.99c-.6,3.48-1.49,10.85-1.59,15.33-.4.4-2.99.7-3.09.2-.99-7.96-2.29-9.95-5.97-11.74Z"/>
    <path class="cls-6" d="m225.14,65.98c0,7.66-3.09,14.33-9.26,18.21-2.69,1.79-7.36,3.68-11.54,3.68-14.53,0-19.81-11.05-19.81-21.3,0-7.86,3.58-13.14,8.66-16.62,3.58-2.29,8.36-3.98,13.04-3.98,11.94,0,18.91,8.86,18.91,20.01Zm-27.07-14.73c-2.59,1.69-5.08,5.28-5.08,12.84,0,11.74,5.87,19.71,13.83,19.71,2.09,0,4.38-.5,6.07-2.09,2.69-2.49,3.78-6.47,3.78-12.54,0-11.54-5.38-19.31-13.83-19.31-1.59,0-3.48.5-4.78,1.39Z"/>
    <path class="cls-6" d="m251.91,54.93c-1.69-2.49-4.58-3.78-7.56-3.78-2.19,0-3.48.6-3.98.99-1.09.8-2.89,3.98-4.18,7.17-.3.4-2.99-1.09-2.89-1.99.2-1.39,1.69-5.28,2.29-5.87,4.28-2.99,10.55-5.47,13.04-5.47,4.38,0,7.66,1.99,9.85,5.28,1.69,2.79,2.29,6.27,2.29,9.85,0,5.17-.4,12.84-.4,16.82,0,2.09.8,3.98,3.78,3.98,1.59,0,2.29-.1,3.48-.5.1.4-.1,2.69-.4,2.99-2.39,2.59-5.87,3.48-8.16,3.48-2.79,0-4.38-1.1-5.08-2.59-.4-.6-.6-1.69-.8-2.49,0-.1-.3-.2-.4-.1-5.08,3.18-9.26,5.18-11.84,5.18-1.89,0-3.88-.99-5.47-2.49-1.99-2.19-3.38-5.27-3.38-8.76,0-1.89,1.29-4.98,1.79-5.67,3.28-1.79,15.03-4.58,18.81-6.47.2-.1.6-.7.6-1,.2-.9.1-1.99.1-2.69,0-1.99-.3-4.18-1.49-5.87Zm.9,12.54c-3.68,1.29-10.05,3.29-11.84,4.58-.4.2-1,2.09-1,3.18,0,3.88,2.69,6.77,6.97,6.77,1.29,0,3.48-.5,5.08-1.59.7-.4,1-1.19,1.09-2.29.2-2.09.2-8.56.2-10.25,0-.1-.3-.5-.5-.4Z"/>
    <path class="cls-6" d="m297.2,57.52c-.3.4-2.29.5-2.69.2-.6-4.28-1.39-6.37-3.38-7.56-1.29-.8-2.89-1.19-4.88-1.19-3.38,0-6.17,2.19-6.17,5.77,0,3.38,1.69,5.37,9.26,8.96,8.26,3.78,10.35,7.17,10.35,11.94,0,7.17-6.67,12.24-15.63,12.24-3.68,0-8.16-.9-10.45-1.89-.7-2.29-1.59-8.66-1.69-10.95.3-.4,2.39-1.1,2.89-.9,1.39,5.18,3.28,7.76,5.87,9.26,1.49.8,3.48,1.19,4.98,1.19,4.08,0,6.67-2.19,6.67-5.57,0-3.58-1.89-5.47-8.06-8.46-8.06-3.98-10.95-7.56-10.95-12.84,0-6.17,4.88-11.74,14.63-11.74,2.29,0,4.78.3,6.47.6,1.59.3,3.18.5,3.98.6-.7,2.99-.9,6.27-1.19,10.35Z"/>
    <path class="cls-6" d="m318.2,52.24c-.2,0-.4.4-.4.5-.1,4.68-.1,13.44,0,18.31,0,3.98.2,5.87.6,7.17.9,2.69,3.38,3.88,5.87,3.88,2.79,0,4.18-.5,6.17-1.69.2.3-.1,2.69-.3,3.09-2.49,3.08-6.67,4.38-9.85,4.38-3.88,0-7.07-1.59-8.76-4.78-1.29-2.39-1.39-4.98-1.39-11.35,0-5.67.1-14.63.1-18.61,0-.3-.2-.8-.6-.9l-5.37-.4c-.1-.6.5-2.79.9-3.29,1.39-.2,3.88-.7,4.68-1.09.1,0,.4-.4.4-.7v-8.46c1.59-.8,5.28-3.28,6.37-4.58.5-.2,1.49-.2,1.79-.1-.2,1.69-.5,6.17-.5,13.14,0,.2.2.6.4.6,4.78,0,10.65-.3,12.14-.5-.3,1.39-.8,3.98-.9,5.47-2.49,0-7.56-.1-11.35-.1Z"/>
    <path class="cls-6" d="m355.03,54.93c-1.69-2.49-4.58-3.78-7.56-3.78-2.19,0-3.48.6-3.98.99-1.1.8-2.89,3.98-4.18,7.17-.3.4-2.99-1.09-2.89-1.99.2-1.39,1.69-5.28,2.29-5.87,4.28-2.99,10.55-5.47,13.04-5.47,4.38,0,7.66,1.99,9.85,5.28,1.69,2.79,2.29,6.27,2.29,9.85,0,5.17-.4,12.84-.4,16.82,0,2.09.8,3.98,3.78,3.98,1.59,0,2.29-.1,3.48-.5.1.4-.1,2.69-.4,2.99-2.39,2.59-5.87,3.48-8.16,3.48-2.79,0-4.38-1.1-5.08-2.59-.4-.6-.6-1.69-.8-2.49,0-.1-.3-.2-.4-.1-5.08,3.18-9.26,5.18-11.84,5.18-1.89,0-3.88-.99-5.47-2.49-1.99-2.19-3.38-5.27-3.38-8.76,0-1.89,1.29-4.98,1.79-5.67,3.28-1.79,15.03-4.58,18.81-6.47.2-.1.6-.7.6-1,.2-.9.1-1.99.1-2.69,0-1.99-.3-4.18-1.49-5.87Zm.9,12.54c-3.68,1.29-10.05,3.29-11.84,4.58-.4.2-1,2.09-1,3.18,0,3.88,2.69,6.77,6.97,6.77,1.29,0,3.48-.5,5.08-1.59.7-.4,1-1.19,1.1-2.29.2-2.09.2-8.56.2-10.25,0-.1-.3-.5-.5-.4Z"/>
    <path class="cls-6" d="m373.25,84.09c1.89-.3,3.19-.5,4.38-1,1.1-.5,1.49-1.39,1.59-2.79.3-3.18.4-10.05.4-26.27,0-7.07,0-21.7-.3-24.68-.1-1.09-.2-2.79-1.49-3.09-1-.3-2.79-.6-5.18-.9-.4-.3-.3-2.19.1-2.49,4.88-.4,11.05-2.09,14.63-3.68.3.1.7.7.7.9-.6,1.79-.9,3.78-.9,8.66-.1,5.08-.1,16.32-.1,24.88,0,15.63.1,22.39.3,25.08.1,2.69.4,3.88,2.19,4.48,1.19.5,1.99.7,4.18.9.2.5,0,2.39-.4,2.89-1.79,0-4.98-.3-10.25-.3-3.88,0-8.56.3-9.85.3-.2-.5-.4-2.29,0-2.89Z"/>
    <path class="cls-3" d="m392.66,25.07c3.58,0,8.36.4,13.34.4,6.47-.1,9.56-.2,11.94-.3.4.2.5,2.49,0,2.79-2.29.5-3.68.8-4.98,1.19-1.59.5-1.89,1.79-1.49,3.88,1.99,8.56,7.47,28.07,10.85,39.81,0,0,.2,0,.4-.1,4.28-11.75,12.44-34.84,15.13-44.49,1.39.2,4.08.2,5.28,0,2.39,8.96,12.34,36.93,15.53,45.29.1.1.4,0,.5-.1,2.69-8.26,9.26-29.76,11.05-37.92.8-3.38.9-5.67-2.09-6.47-1.59-.4-3.08-.7-5.87-1.09-.5-.4-.4-2.59,0-2.79,2.39,0,7.47.3,11.54.3,6.57,0,9.36-.3,11.45-.3.4.3.4,2.49,0,2.79-1.99.4-3.28.7-4.38,1.09-2.39.9-3.68,2.19-5.18,6.17-4.28,11.65-13.14,39.91-16.72,52.05-.9,0-4.18,0-5.08.1-2.29-8.26-11.94-36.03-15.63-45.78-.1,0-.3.1-.4.2-4.48,12.44-12.64,35.33-15.82,45.48-.9-.1-4.08-.1-5.08.1-2.99-12.24-11.05-42.1-14.23-51.85-1.49-4.38-2.49-5.77-5.08-6.47-1.69-.5-2.79-.7-5.28-1.09-.3-.4-.2-2.59.3-2.89Z"/>
    <path class="cls-3" d="m503.64,86.98c-1.89,0-5.08-.3-10.15-.3-4.18,0-8.06.3-9.75.3-.4-.3-.4-2.49,0-2.89,1.69-.2,3.08-.5,4.28-.9,1.29-.5,1.59-1.29,1.79-3.58.2-2.49.2-9.06.2-14.53,0-3.88-.1-7.46-.1-9.46,0-.6-.1-1.39-.7-2.09-1.1-1.09-2.79-1.69-4.78-2.39-.3-.4,0-2.09.4-2.39,2.99-.1,9.06-1.29,12.94-2.89,0,4.48-.1,11.35-.1,17.42,0,5.47,0,12.14.1,16.62,0,1.79.6,2.89,2.09,3.38,1.29.3,1.89.5,4.18.8.3.5,0,2.59-.4,2.89Zm-7.66-50.36c-.5.3-3.88.6-4.48.2-1.49-.7-2.29-2.09-2.59-4.08-.1-.6,0-2.39.5-2.89.9-.8,2.99-1.79,4.78-1.79,1.59,0,2.69.5,2.89.8.6.7.99,1.99.99,2.89,0,1.89-.8,3.88-2.09,4.88Z"/>
    <path class="cls-3" d="m553.2,84.59c-2.59,1.19-10.45,3.68-12.94,3.78-.3,0-.6-.6-.7-1.29-.1-.8-.2-3.38-.2-4.88,0-.3-.3-.4-.5-.4-4.48,3.19-10.55,5.87-13.93,5.87-4.18,0-8.16-1.89-10.85-5.28-2.89-3.48-4.48-8.56-4.48-14.13,0-6.27,2.79-12.34,7.27-16.02,4.08-3.38,11.65-6.27,17.92-6.27,1.59,0,3.38.3,4.48.4.1,0,.4-.2.4-.4,0-11.65,0-14.83-.2-17.32-.2-1.89-.6-2.69-2.09-3.18-1.29-.4-3.88-.8-5.77-1-.3-.6-.2-2.39.4-2.69,6.47,0,13.04-1.49,16.12-2.59.2.1.6,1.09.5,1.39-.9,1.49-.99,2.99-1.09,7.46-.2,5.38-.4,13.14-.4,28.57,0,11.54,0,19.71.1,21.9.1,2.99.9,3.18,1.89,3.38,1.19.2,2.89.1,4.58,0,.1.5-.2,2.29-.5,2.69Zm-31.45-31.45c-2.79,2.59-4.28,6.87-4.28,12.04,0,10.75,5.77,16.32,13.34,16.32,2.99,0,5.67-.99,7.76-2.69.5-.5.8-1.39.8-2.09.2-2.39.3-15.13.2-19.61-.1-2.09-.5-3.38-2.19-4.58-2.09-1.59-4.98-2.29-8.16-2.29-2.79,0-5.47.9-7.47,2.89Z"/>
    <path class="cls-3" d="m593.22,77.72c.1.7-.3,2.39-.5,2.69-4.38,4.98-11.25,7.47-15.83,7.47-5.18,0-9.16-1.69-12.14-4.78-4.08-4.08-5.67-10.15-5.67-15.82,0-8.76,3.68-14.63,8.76-18.02,3.08-1.99,7.56-3.28,10.75-3.28,9.65,0,13.14,8.56,13.93,14.13.1.4.5.8,1.49,1.09.1.4-.5,2.09-.8,2.29-4.18,1.19-17.72,1.99-26.08,2.19-.4.1-.6.6-.6,1.09.2,3.38,1.69,7.56,4.08,10.15,2.99,3.09,6.37,4.38,10.85,4.38,3.98,0,7.66-1.19,11.35-4.18.1.1.3.3.4.6Zm-26.47-16.52c0,.2.2.7.5.7,3.18.2,14.93-.2,16.92-.6.2-.2.5-.5.5-.9-.5-4.98-3.78-10.65-9.16-10.65-4.78,0-8.26,4.38-8.76,11.45Z"/>
  </g>
</svg>