<?xml version="1.0" encoding="UTF-8"?>
<svg id="Layer_1" data-name="Layer 1" xmlns="http://www.w3.org/2000/svg" viewBox="0 0 219.11 79.35">
  <defs>
    <style>
      .cls-1 {
        fill: #fff;
      }

      .cls-2 {
        fill: #61b246;
      }

      .cls-3 {
        fill: #231f20;
      }
    </style>
  </defs>
  <g>
    <path class="cls-3" d="m127.57,29.82v7.97h-4.78v-17.52h.12l8.62,7.1,8.59-7.1h.14v17.52h-4.8v-7.97l-3.94,3.19-3.96-3.19Z"/>
    <path class="cls-3" d="m142.28,38.73c.19.1.79.31,1.56.31,1.22,0,1.94-.5,2.3-1.1l-4.85-12.14h5.3l1.13,4.01c.34,1.2.65,2.45.84,3.7h.05c.17-1.25.48-2.5.82-3.7l1.13-4.01h5.28l-4.58,12.36c-1.39,3.77-3.82,5.28-6.65,5.28-1.32,0-2.04-.19-2.33-.31v-4.39Z"/>
    <path class="cls-3" d="m156.2,25.79h1.44v-3.6h4.75v3.6h2.76v3.74h-2.76v3.48c0,.91.7,1.15,1.32,1.15.74,0,1.42-.26,1.82-.46v3.91c-.55.24-1.75.53-3.38.53-2.42,0-4.58-1.22-4.58-4.51v-4.1h-1.37v-3.74Z"/>
    <path class="cls-3" d="m179.53,37.79h-4.9v-6.77c0-.74-.41-1.2-1.01-1.2-1.03,0-1.66.77-1.66,1.92v6.05h-4.9v-17.28h4.78v6.67c.7-.94,2.09-1.75,3.46-1.75,2.45,0,4.22,1.54,4.22,4.87v7.49Z"/>
    <path class="cls-3" d="m191.14,34.26c0,2.45-2.02,3.89-5.47,3.89-2.09,0-3.5-.46-4.27-.77v-4.22c1.1.62,3.02,1.22,4.22,1.22.53,0,1.06-.05,1.06-.36,0-.29-.58-.41-1.51-.65-2.35-.58-4.03-1.54-4.03-4.01s1.75-3.94,4.85-3.94c2.14,0,3.74.5,4.37.74v4.1c-.98-.5-2.78-1.03-3.94-1.03-.29,0-.82.02-.82.36,0,.26.36.46,1.3.67,2.9.7,4.25,1.68,4.25,3.98Z"/>
  </g>
  <path class="cls-2" d="m195.5,28.74c-.91-1.06-1.51-2.11-1.51-4.03,0-2.38,2.4-4.56,5.3-4.56s5.3,2.18,5.3,4.56c0,2.78-1.87,4.08-3.12,4.7l1.75,1.82c.12-.65.17-1.32.12-1.97h4.13c.17,1.99-.17,3.89-1.1,5.28l3.12,3.24h-5.23l-.65-.67c-1.18.67-2.57,1.03-4.2,1.03-4.9,0-6.96-2.4-6.96-4.99,0-1.99,1.32-3.46,3.05-4.42Zm5.23,5.42l-2.88-2.98c-.58.43-.89.94-.89,1.56,0,.89.79,1.63,2.47,1.63.46,0,.91-.07,1.3-.22Zm-1.73-7.32c.72-.41,1.49-1.01,1.49-1.7s-.53-1.22-1.2-1.22-1.2.53-1.2,1.22.36,1.13.91,1.7Z"/>
  <path class="cls-2" d="m84.42,70.45H31.6c-16.1,0-21.1-7.92-21.1-14.25v-31.4c0-10.68,10.19-16.19,19.13-16.19h68.25c9.66,0,16.28,9.74,12.72,18.72l-13.71,34.64c-2.03,5.12-6.97,8.48-12.48,8.48Z"/>
  <path class="cls-3" d="m73.89,70.45h-37.21c-16.1,0-26.18-15-26.18-25.37v-9.13c0-15.07,12.06-27.65,28.65-27.34h35.13c23.42-.29,31.69,22.12,27.35,33.67l-5.65,14.26c-4.57,9.41-16.59,13.91-22.09,13.91Z"/>
  <g>
    <path class="cls-1" d="m20.16,20.51h10.97v4.22h-5.95v2.57h5.02v4.1h-5.02v6.38h-5.02v-17.28Z"/>
    <path class="cls-1" d="m32.38,37.79v-17.28h5.02v13.06h5.9v4.22h-10.92Z"/>
    <path class="cls-1" d="m52.03,20.15c5.45,0,9.24,4.06,9.24,9s-3.79,9-9.24,9-9.22-3.98-9.22-9,3.79-9,9.22-9Zm0,13.42c2.54,0,4.18-2.09,4.18-4.42s-1.63-4.42-4.18-4.42-4.18,2.14-4.18,4.42,1.66,4.42,4.18,4.42Z"/>
    <path class="cls-1" d="m71.09,20.15c5.45,0,9.24,4.06,9.24,9s-3.79,9-9.24,9-9.22-3.98-9.22-9,3.79-9,9.22-9Zm0,13.42c2.54,0,4.18-2.09,4.18-4.42s-1.63-4.42-4.18-4.42-4.18,2.14-4.18,4.42,1.66,4.42,4.18,4.42Z"/>
    <path class="cls-1" d="m81.7,37.79v-17.28h6.05c6.19,0,9.96,3.7,9.96,8.64s-3.77,8.64-9.96,8.64h-6.05Zm5.02-13.06v8.83h.96c3.34,0,4.97-2.11,4.97-4.42s-1.63-4.42-4.97-4.42h-.96Z"/>
  </g>
  <g>
    <path class="cls-1" d="m20.24,39.89h10.97v4.22h-5.95v2.57h5.02v4.1h-5.02v6.38h-5.02v-17.28Z"/>
    <path class="cls-1" d="m40.33,54.89h-5.26l-1.06,2.28h-5.21l8.79-17.52h.24l8.78,17.52h-5.21l-1.08-2.28Zm-3.86-3.26h2.5c-.43-1.01-1.08-2.59-1.22-3.22h-.05c-.14.62-.79,2.21-1.22,3.22Z"/>
    <path class="cls-1" d="m54.52,39.53c2.21,0,3.72.5,4.92,1.13v4.56c-.94-.48-2.4-1.1-4.42-1.1-3.07,0-4.68,2.14-4.68,4.42s1.56,4.42,4.42,4.42c2.18,0,3.79-.6,4.8-1.1v4.61c-1.2.62-3.19,1.08-5.28,1.08-5.18,0-8.98-3.99-8.98-9s3.79-9,9.22-9Z"/>
    <path class="cls-1" d="m74.17,39.89v4.22h-4.42v13.06h-5.04v-13.06h-4.42v-4.22h13.87Z"/>
    <path class="cls-1" d="m87.04,52.27c0,3.29-2.45,5.26-6.96,5.26-1.94,0-3.94-.36-5.28-.94v-4.8c1.61.89,3.53,1.37,5.02,1.37s2.33-.26,2.33-.89c0-.72-1.13-1.06-2.98-1.78-2.78-1.08-4.75-2.23-4.75-5.54s2.67-5.42,6.77-5.42c1.73,0,3.5.31,4.71.82v4.61c-1.06-.7-2.66-1.1-4.27-1.1-1.42,0-2.28.41-2.28,1.1,0,.62,1.06,1.06,2.81,1.78,2.78,1.15,4.9,2.33,4.9,5.54Z"/>
  </g>
  <g>
    <path class="cls-3" d="m112.08,50.92v7.97h-4.78v-17.52h.12l8.62,7.1,8.59-7.1h.14v17.52h-4.8v-7.97l-3.94,3.19-3.96-3.19Z"/>
    <path class="cls-3" d="m125.79,52.89c0-3.65,2.76-6.36,6.6-6.36s6.6,2.71,6.6,6.36-2.76,6.36-6.6,6.36-6.6-2.71-6.6-6.36Zm4.56,0c0,1.44.94,2.33,2.04,2.33s2.04-.89,2.04-2.33-.94-2.33-2.04-2.33-2.04.89-2.04,2.33Z"/>
    <path class="cls-3" d="m152.84,58.89h-4.9v-6.77c0-.74-.41-1.2-1.01-1.2-1.03,0-1.66.77-1.66,1.92v6.05h-4.9v-12h4.42l.14,1.08c.05.34-.02.55-.1.74h.05c.55-1.13,2.16-2.18,3.72-2.18,2.45,0,4.22,1.54,4.22,4.87v7.49Z"/>
    <path class="cls-3" d="m164.68,55.36c0,2.45-2.02,3.89-5.47,3.89-2.09,0-3.5-.46-4.27-.77v-4.22c1.1.62,3.02,1.22,4.22,1.22.53,0,1.06-.05,1.06-.36,0-.29-.58-.41-1.51-.65-2.35-.58-4.03-1.54-4.03-4.01s1.75-3.94,4.85-3.94c2.14,0,3.74.5,4.37.74v4.1c-.98-.5-2.78-1.03-3.94-1.03-.29,0-.82.02-.82.36,0,.26.36.46,1.3.67,2.9.7,4.25,1.68,4.25,3.98Z"/>
    <path class="cls-3" d="m165,46.89h1.44v-3.6h4.75v3.6h2.76v3.74h-2.76v3.48c0,.91.7,1.15,1.32,1.15.74,0,1.42-.26,1.82-.46v3.91c-.55.24-1.75.53-3.38.53-2.42,0-4.58-1.22-4.58-4.51v-4.1h-1.37v-3.74Z"/>
    <path class="cls-3" d="m187.34,52.17c0,.77-.1,1.49-.14,1.7h-6.84c.22.94,1.13,1.32,2.5,1.32,1.78,0,3.65-.53,3.98-.65v4.03c-.58.24-2.18.67-4.46.67-4.46,0-7.08-2.71-7.08-6.36s2.74-6.36,6.31-6.36c3.86,0,5.74,2.64,5.74,5.64Zm-5.78-1.92c-.84,0-1.25.65-1.25,1.54h2.45c.05-.89-.36-1.54-1.2-1.54Z"/>
    <path class="cls-3" d="m188.76,46.89h4.42l.19,1.37c.72-.89,2.02-1.73,3.38-1.73.41,0,.79.05.79.05v4.78s-.36-.19-.94-.19c-1.34,0-2.95.7-2.95,2.74v4.99h-4.9v-12Z"/>
    <path class="cls-3" d="m208.22,55.36c0,2.45-2.02,3.89-5.47,3.89-2.09,0-3.5-.46-4.27-.77v-4.22c1.1.62,3.02,1.22,4.22,1.22.53,0,1.06-.05,1.06-.36,0-.29-.58-.41-1.51-.65-2.35-.58-4.03-1.54-4.03-4.01s1.75-3.94,4.85-3.94c2.14,0,3.74.5,4.37.74v4.1c-.98-.5-2.78-1.03-3.94-1.03-.29,0-.82.02-.82.36,0,.26.36.46,1.3.67,2.9.7,4.25,1.68,4.25,3.98Z"/>
  </g>
</svg>